<svg width="48" height="48" viewBox="0 0 48 48" fill="none" xmlns="http://www.w3.org/2000/svg">
<path d="M4 35C4 33.1308 4 32.1962 4.40192 31.5C4.66523 31.0439 5.04394 30.6652 5.5 30.4019C6.19615 30 7.13077 30 9 30C10.8692 30 11.8038 30 12.5 30.4019C12.9561 30.6652 13.3348 31.0439 13.5981 31.5C14 32.1962 14 33.1308 14 35C14 36.8692 14 37.8038 13.5981 38.5C13.3348 38.9561 12.9561 39.3348 12.5 39.5981C11.8038 40 10.8692 40 9 40C7.13077 40 6.19615 40 5.5 39.5981C5.04394 39.3348 4.66523 38.9561 4.40192 38.5C4 37.8038 4 36.8692 4 35Z" stroke="#EBEBEB" stroke-width="2"/>
<path opacity="0.5" d="M19 35C19 33.1308 19 32.1962 19.4019 31.5C19.6652 31.0439 20.0439 30.6652 20.5 30.4019C21.1962 30 22.1308 30 24 30C25.8692 30 26.8038 30 27.5 30.4019C27.9561 30.6652 28.3348 31.0439 28.5981 31.5C29 32.1962 29 33.1308 29 35C29 36.8692 29 37.8038 28.5981 38.5C28.3348 38.9561 27.9561 39.3348 27.5 39.5981C26.8038 40 25.8692 40 24 40C22.1308 40 21.1962 40 20.5 39.5981C20.0439 39.3348 19.6652 38.9561 19.4019 38.5C19 37.8038 19 36.8692 19 35Z" stroke="#EBEBEB" stroke-width="2"/>
<path opacity="0.7" d="M34 35C34 33.1308 34 32.1962 34.4019 31.5C34.6652 31.0439 35.0439 30.6652 35.5 30.4019C36.1962 30 37.1308 30 39 30C40.8692 30 41.8038 30 42.5 30.4019C42.9561 30.6652 43.3348 31.0439 43.5981 31.5C44 32.1962 44 33.1308 44 35C44 36.8692 44 37.8038 43.5981 38.5C43.3348 38.9561 42.9561 39.3348 42.5 39.5981C41.8038 40 40.8692 40 39 40C37.1308 40 36.1962 40 35.5 39.5981C35.0439 39.3348 34.6652 38.9561 34.4019 38.5C34 37.8038 34 36.8692 34 35Z" stroke="#EBEBEB" stroke-width="2"/>
<path d="M9 30V18C9 13.286 9 10.9289 10.4645 9.46447C11.9289 8 14.286 8 19 8H29C33.714 8 36.0711 8 37.5355 9.46447C39 10.9289 39 13.286 39 18V24M39 24L43 20M39 24L35 20" stroke="#EBEBEB" stroke-width="2" stroke-linecap="round" stroke-linejoin="round"/>
</svg>
