<svg width="48" height="48" viewBox="0 0 48 48" fill="none" xmlns="http://www.w3.org/2000/svg">
<path d="M29.718 32.9999L24.7951 28.077L23.2918 29.5803C21.7527 31.1194 20.9832 31.8889 20.1561 31.7072C19.329 31.5256 18.9528 30.5044 18.2004 28.4621L15.6909 21.6506C14.1898 17.5763 13.4393 15.5392 14.4893 14.4893C15.5392 13.4393 17.5763 14.1898 21.6506 15.6909L28.4621 18.2004C30.5044 18.9528 31.5256 19.329 31.7072 20.1561C31.8889 20.9832 31.1194 21.7527 29.5803 23.2918L28.077 24.7951L32.9999 29.718C33.5096 30.2277 33.7645 30.4825 33.8822 30.7669C34.0393 31.1459 34.0393 31.5719 33.8822 31.951C33.7645 32.2353 33.5096 32.4902 32.9999 32.9999C32.4902 33.5096 32.2353 33.7645 31.951 33.8822C31.5719 34.0393 31.1459 34.0393 30.7669 33.8822C30.4825 33.7645 30.2277 33.5096 29.718 32.9999Z" stroke="#EBEBEB" stroke-width="2" stroke-linecap="round" stroke-linejoin="round"/>
<path opacity="0.5" d="M4 24C4 14.5719 4 9.85786 6.92893 6.92893C9.85786 4 14.5719 4 24 4C33.4281 4 38.1421 4 41.0711 6.92893C44 9.85786 44 14.5719 44 24C44 33.4281 44 38.1421 41.0711 41.0711C38.1421 44 33.4281 44 24 44C14.5719 44 9.85786 44 6.92893 41.0711C4 38.1421 4 33.4281 4 24Z" stroke="#EBEBEB" stroke-width="2"/>
</svg>
