<svg width="48" height="48" viewBox="0 0 48 48" fill="none" xmlns="http://www.w3.org/2000/svg">
<path opacity="0.5" d="M6.34315 37.6569C8.68629 40 12.4575 40 20 40H24L30 39.9981C36.2286 39.9799 39.5307 39.783 41.6569 37.6569C44 35.3137 44 31.5425 44 24C44 16.4575 44 12.6863 41.6569 10.3431C39.5307 8.21696 36.2286 8.02009 30 8.00186L24 8H20C12.4575 8 8.68629 8 6.34315 10.3431C4 12.6863 4 16.4575 4 24C4 31.5425 4 35.3137 6.34315 37.6569Z" stroke="#EBEBEB" stroke-width="2" stroke-linecap="round"/>
<path d="M18 24C18 25.1046 17.1046 26 16 26C14.8954 26 14 25.1046 14 24C14 22.8954 14.8954 22 16 22C17.1046 22 18 22.8954 18 24Z" fill="#EBEBEB"/>
<path d="M26 24C26 25.1046 25.1046 26 24 26C22.8954 26 22 25.1046 22 24C22 22.8954 22.8954 22 24 22C25.1046 22 26 22.8954 26 24Z" fill="#EBEBEB"/>
<path d="M30 4V44" stroke="#EBEBEB" stroke-width="2" stroke-linecap="round"/>
</svg>
